<svg viewBox="0 0 200 200" xmlns="http://www.w3.org/2000/svg"><defs><radialGradient id="fl" cx="50%" cy="50%" r="58%"><stop offset="0" stop-color="#FFD7A0"/><stop offset="1" stop-color="#F9B257"/></radialGradient></defs><path d="M104.0 16.0 Q124.4 8.4 132.0 -12.0 Q111.6 -4.4 104.0 16.0 Z" fill="#5BA64A"/><path d="M104.0 16.0 L132.0 -12.0" stroke="#4E9D3F" stroke-width="2" stroke-linecap="round"/><circle cx="100" cy="100" r="96" fill="#F4863F"/><circle cx="100" cy="100" r="89" fill="#FFF6EA"/><path d="M111.0 100.0 Q154.6 93.3 178.1 78.4 A81 81 0 0 1 178.1 121.6 Q154.6 106.7 111.0 100.0 Z" fill="url(#fl)"/><path d="M108.9 106.5 Q148.1 126.7 175.9 128.4 A81 81 0 0 1 150.4 163.4 Q140.2 137.5 108.9 106.5 Z" fill="url(#fl)"/><path d="M103.4 110.5 Q123.2 149.9 144.7 167.5 A81 81 0 0 1 103.5 180.9 Q110.5 154.0 103.4 110.5 Z" fill="url(#fl)"/><path d="M96.6 110.5 Q89.5 154.0 96.5 180.9 A81 81 0 0 1 55.3 167.5 Q76.8 149.9 96.6 110.5 Z" fill="url(#fl)"/><path d="M91.1 106.5 Q59.8 137.5 49.6 163.4 A81 81 0 0 1 24.1 128.4 Q51.9 126.7 91.1 106.5 Z" fill="url(#fl)"/><path d="M89.0 100.0 Q45.4 106.7 21.9 121.6 A81 81 0 0 1 21.9 78.4 Q45.4 93.3 89.0 100.0 Z" fill="url(#fl)"/><path d="M91.1 93.5 Q51.9 73.3 24.1 71.6 A81 81 0 0 1 49.6 36.6 Q59.8 62.5 91.1 93.5 Z" fill="url(#fl)"/><path d="M96.6 89.5 Q76.8 50.1 55.3 32.5 A81 81 0 0 1 96.5 19.1 Q89.5 46.0 96.6 89.5 Z" fill="url(#fl)"/><path d="M103.4 89.5 Q110.5 46.0 103.5 19.1 A81 81 0 0 1 144.7 32.5 Q123.2 50.1 103.4 89.5 Z" fill="url(#fl)"/><path d="M108.9 93.5 Q140.2 62.5 150.4 36.6 A81 81 0 0 1 175.9 71.6 Q148.1 73.3 108.9 93.5 Z" fill="url(#fl)"/><circle cx="100" cy="100" r="5.5" fill="#FFF6EA"/></svg>